# xmcd
#
# Track frame offsets: 
#        150
#        18713
#        42286
#        63305
#        80087
#        99807
#        118511
#        138815
#        152144
#        167110
#        185480
#        232059
#        259066
#
# Disc length: 3583 seconds
#
# Revision: 1
# Processed by: cddbd v1.5.2PL0 Copyright (c) Steve Scherf et al.
# Submitted via: ExactAudioCopy v1.3
#
DISCID=aa0dfd0d
DTITLE=Cure - The Cure
DYEAR=2004
DGENRE=Rock - Alternative Rock
TTITLE0=Lost
TTITLE1=Labyrinth
TTITLE2=Before Three
TTITLE3=The End Of The World
TTITLE4=Anniversary
TTITLE5=Us Or Them
TTITLE6=Alt.end
TTITLE7=I Don't Know What's Going On
TTITLE8=Taking Off
TTITLE9=Never
TTITLE10=The Promise
TTITLE11=Going Nowhere
TTITLE12=Data Track
EXTD=
EXTT0=
EXTT1=
EXTT2=
EXTT3=
EXTT4=
EXTT5=
EXTT6=
EXTT7=
EXTT8=
EXTT9=
EXTT10=
EXTT11=
EXTT12=
PLAYORDER=
